{"title":"Kid 2012 FESTiVAL DVDRip XviD-EXViD","uid":8857148,"size":741588111,"categoryP":"video","categoryS":"movies","magnet":"?xt=urn:btih:6612195e4ac22f351d06b26c7dc13df74a7ae080&amp;dn=Kid+2012+FESTiVAL+DVDRip+XviD-EXViD&amp;tr=udp%3A%2F%2Ftracker.openbittorrent.com%3A80&amp;tr=udp%3A%2F%2Fopen.demonii.com%3A1337&amp;tr=udp%3A%2F%2Ftracker.coppersurfer.tk%3A6969&amp;tr=udp%3A%2F%2Fexodus.desync.com%3A6969","seeders":0,"leechers":1,"uploader":"movieZ.freak","files":4,"time":1377689613,"description":"Kid 2012 FESTiVAL DVDRip XviD-EXViD (upload by titler)\n\n &lt;a href=&quot;\nhttp://www.imdb.com/title/tt2365879/&quot; rel=&quot;nofollow&quot; target=&quot;_NEW&quot;&gt;\nhttp://www.imdb.com/title/tt2365879/&lt;/a&gt;\n\n\nSAMPLE: Yes\n\nSUBTITLE: English\n\nLANGUAGE: Dutch\n\n\n\nSCREENSHOTS:\n---------------------\n &lt;a href=&quot;\nhttp://someimage.com/Uh5S&quot; rel=&quot;nofollow&quot; target=&quot;_NEW&quot;&gt;\nhttp://someimage.com/Uh5S&lt;/a&gt;\n\n\nPLOT:\n------------- &lt;a href=&quot;\nhttp://www.imdb.com/title/tt2365879/reviews?ref_=tt_urv&quot; rel=&quot;nofollow&quot; target=&quot;_NEW&quot;&gt;\nhttp://www.imdb.com/title/tt2365879/reviews?ref_=tt_urv&lt;/a&gt;\n\n\n*Positive reviews only.* There is no point to spit on this movie because 'this' is different, not bad, just different kind of movie.\n\n\nNOTE:\n------------\nThis is psychedelic art movie for people with 'special' taste for movies. This movie is not even close to Hollywood or usual European production type of movies.\nNobody give a F... dUCK :) to upload this flick, so here you go.\n\n\nGeneral\n--------------\nFormat : AVI\nFormat/Info : Audio Video Interleave\nFile size : 700 MiB\nDuration : 1h 28mn\nOverall bit rate mode : Variable\nOverall bit rate : 1 109 Kbps\nWriting application : VirtualDubMod 1.5.10.2\nWriting library : VirtualDubMod build 2540\n\nVideo\n--------------\nFormat : MPEG-4 Visual\nFormat profile : Advanced Simple@L5\nFormat settings, BVOP : 2\nFormat settings, QPel : No\nFormat settings, GMC : No warppoints\nFormat settings, Matrix : Default (H.263)\nMuxing mode : Packed bitstream\nCodec ID : XVID\nCodec ID/Hint : XviD\nDuration : 1h 28mn\nBit rate : 966 Kbps\nWidth : 624 pixels\nHeight : 336 pixels\nDisplay aspect ratio : 1.85:1\nFrame rate : 25.000 fps\nColor space : YUV\nChroma subsampling : 4:2:0\nBit depth : 8 bits\nScan type : Progressive\nCompression mode : Lossy\nBits/(Pixel*Frame) : 0.184\nStream size : 610 MiB (87%)\nWriting library : XviD 64\n\nAudio\n-----------\nFormat : MPEG Audio\nFormat version : Version 1\nFormat profile : Layer 3\nMode : Joint stereo\nCodec ID : 55\nCodec ID/Hint : MP3\nDuration : 1h 28mn\nBit rate mode : Variable\nBit rate : 130 Kbps\nMinimum bit rate : 128 Kbps\nChannel(s) : 2 channels\nSampling rate : 48.0 KHz\nCompression mode : Lossy\nStream size : 82.1 MiB (12%)\nAlignment : Aligned on interleaves\nInterleave, duration : 24 ms (0.60 video frame)\nInterleave, preload duration : 506 ms\nWriting library : LAME4.0a\nLanguage: Dutch\n","torrent":{"xt":"urn:btih:6612195e4ac22f351d06b26c7dc13df74a7ae080","amp;dn":"Kid+2012+FESTiVAL+DVDRip+XviD-EXViD","amp;tr":["udp%3A%2F%2Ftracker.openbittorrent.com%3A80","udp%3A%2F%2Fopen.demonii.com%3A1337","udp%3A%2F%2Ftracker.coppersurfer.tk%3A6969","udp%3A%2F%2Fexodus.desync.com%3A6969"],"infoHash":"6612195e4ac22f351d06b26c7dc13df74a7ae080","infoHashBuffer":{"type":"Buffer","data":[102,18,25,94,74,194,47,53,29,6,178,108,125,193,61,247,74,122,224,128]},"announce":[],"urlList":[]}}